<svg viewBox="0 0 96 96" fill="none" xmlns="http://www.w3.org/2000/svg">
<style type="text/css">
	.st0{fill:#FE4834;}
	.st1{fill:#243B55;}
</style>
<path class="st1" d="M60.9998 47.4C61.2998 47.4 61.4998 47.4 61.7998 47.4V19.2C61.7998 15.3 58.4998 12 54.4998 12H28.0998C23.9998 12 20.7998 15.3 20.7998 19.3V75.6C20.7998 79.7 24.0998 82.9 28.0998 82.9H54.4998C54.7998 82.9 54.8998 82.9 55.1998 82.9C56.9998 83.6 59.0998 83.9 61.0998 83.9C71.1998 83.9 79.2998 75.8 79.2998 65.7C79.1998 55.5 70.9998 47.4 60.9998 47.4ZM22.0998 19.2C22.0998 15.9 24.6998 13.3 28.0998 13.3H54.4998C57.7998 13.3 60.4998 16.1 60.4998 19.3V20.2H22.0998V19.2ZM22.0998 21.4H60.4998V47.4C50.6998 47.7 42.7998 55.8 42.7998 65.6C42.7998 67.4 43.0998 69.3 43.5998 71H22.0998V21.4ZM22.0998 75.6V72.3H44.0998C45.6998 76.2 48.5998 79.5 52.1998 81.5H28.0998C24.6998 81.5 22.0998 78.9 22.0998 75.6ZM60.9998 82.6C51.5998 82.6 43.9998 75 43.9998 65.6C43.9998 56.2 51.5998 48.6 60.9998 48.6C70.3998 48.6 77.9998 56.2 77.9998 65.6C77.8998 75 70.2998 82.6 60.9998 82.6Z"/>
<path class="st1" fill-rule="evenodd" clip-rule="evenodd" d="M49.4999 28.3H33.5999C33.1999 28.3 32.8999 28.6 32.8999 29C32.8999 29.4 33.1999 29.7001 33.5999 29.7001H49.5999C49.9999 29.7001 50.2999 29.4 50.2999 29C50.2999 28.5 49.8999 28.3 49.4999 28.3Z"/>
<path class="st1" fill-rule="evenodd" clip-rule="evenodd" d="M40.3999 53.5H27.5999C27.1999 53.5 26.8999 53.8 26.8999 54.2C26.8999 54.6 27.1999 54.9 27.5999 54.9H40.4999C40.8999 54.9 41.1999 54.6 41.1999 54.2C41.1999 53.7 40.7999 53.5 40.3999 53.5Z"/>
<path class="st1" fill-rule="evenodd" clip-rule="evenodd" d="M36.1999 44.6001H27.5999C27.1999 44.6001 26.8999 44.9001 26.8999 45.3001C26.8999 45.7001 27.1999 46.0001 27.5999 46.0001H36.2999C36.6999 46.0001 36.9999 45.7001 36.9999 45.3001C36.9999 44.8001 36.5999 44.6001 36.1999 44.6001Z"/>
<path class="st1" fill-rule="evenodd" clip-rule="evenodd" d="M55.2001 44.6001H42.3001C41.9001 44.6001 41.6001 44.9001 41.6001 45.3001C41.6001 45.7001 41.9001 46.0001 42.3001 46.0001H55.3001C55.7001 46.0001 56.0001 45.7001 56.0001 45.3001C56.0001 44.8001 55.6001 44.6001 55.2001 44.6001Z"/>
<path class="st1" fill-rule="evenodd" clip-rule="evenodd" d="M37.3001 17.5001H45.2001C45.6001 17.5001 45.9001 17.2001 45.9001 16.8001C45.9001 16.4001 45.6001 16.1001 45.2001 16.1001H37.3001C36.9001 16.1001 36.6001 16.4001 36.6001 16.8001C36.6001 17.2001 36.9001 17.5001 37.3001 17.5001Z"/>
<path class="st1" d="M41.2001 74.6001C39.8001 74.6001 38.6001 75.8001 38.6001 77.2001C38.6001 78.6001 39.8001 79.8001 41.2001 79.8001C42.6001 79.8001 43.8001 78.6001 43.8001 77.2001C43.8001 75.7001 42.7001 74.6001 41.2001 74.6001ZM41.2001 78.5001C40.5001 78.5001 39.9001 77.8001 39.9001 77.2001C39.9001 76.5001 40.6001 75.9001 41.2001 75.9001C41.9001 75.9001 42.5001 76.6001 42.5001 77.2001C42.5001 77.8001 41.9001 78.5001 41.2001 78.5001Z"/>
<path class="st1" fill-rule="evenodd" clip-rule="evenodd" d="M56.0999 49.3C55.8999 49.1 55.6999 49 55.4999 49H27.5999C27.1999 49 26.8999 49.3 26.8999 49.7C26.8999 50.1 27.1999 50.4 27.5999 50.4H53.2999C54.1999 50 55.0999 49.6 56.0999 49.3Z"/>
<path class="st1" fill-rule="evenodd" clip-rule="evenodd" d="M49.0001 53.5H43.8001C43.4001 53.5 43.1001 53.8 43.1001 54.2C43.1001 54.6 43.4001 54.9 43.8001 54.9H47.7001C48.2001 54.4 48.6001 54 49.0001 53.5Z"/>
<path class="st1" fill-rule="evenodd" clip-rule="evenodd" d="M45.7999 58H27.5999C27.1999 58 26.8999 58.3 26.8999 58.7C26.8999 59.1 27.1999 59.4 27.5999 59.4H45.1999C45.3999 58.9 45.5999 58.4 45.7999 58Z"/>
<path class="st0" fill-rule="evenodd" clip-rule="evenodd" d="M60.8048 68.0671L60.4058 58.4721C60.4058 58.4721 60.8618 58.3201 61.6978 58.3201C62.4768 58.3201 62.9898 58.4721 62.9898 58.4721L62.5908 68.0671C62.5908 68.0671 62.2678 68.2381 61.7168 68.2381C61.1658 68.2381 60.8048 68.0671 60.8048 68.0671ZM62.8948 69.6631V71.8481C62.8948 71.8481 62.4768 72.0001 61.6978 72.0001C60.8618 72.0001 60.5008 71.8481 60.5008 71.8481V69.6631C60.5008 69.6631 60.8618 69.5111 61.6978 69.5111C62.4768 69.5111 62.8948 69.6631 62.8948 69.6631Z"/>
</svg>
